<?xml version="1.0" encoding="UTF-8"?><svg id="Layer_2" xmlns="http://www.w3.org/2000/svg" xmlns:xlink="http://www.w3.org/1999/xlink" viewBox="0 0 250 250"><defs><style>.cls-1{fill:url(#linear-gradient-2);}.cls-2{fill:url(#linear-gradient-15);}.cls-3{fill:url(#linear-gradient-14);}.cls-4{fill:url(#linear-gradient-6);}.cls-5{fill:url(#linear-gradient-11);}.cls-6{fill:url(#linear-gradient-10);}.cls-7{fill:url(#linear-gradient-5);}.cls-8{fill:url(#linear-gradient-7);}.cls-9{fill:url(#linear-gradient-9);}.cls-10{fill:url(#linear-gradient-3);}.cls-11{fill:url(#linear-gradient);}.cls-12{fill:#060d0d;}.cls-13{fill:url(#linear-gradient-4);}.cls-14{fill:url(#linear-gradient-8);}.cls-15{fill:url(#linear-gradient-12);}.cls-16{fill:url(#linear-gradient-13);}</style><linearGradient id="linear-gradient" x1="104.34" y1="110.81" x2="109.07" y2="111.64" gradientUnits="userSpaceOnUse"><stop offset="0" stop-color="#414042"/><stop offset=".11" stop-color="#8d95a2"/><stop offset=".25" stop-color="#d1d3d4"/><stop offset=".41" stop-color="#fff"/><stop offset=".41" stop-color="#fdfdfd"/><stop offset=".46" stop-color="#d1d1d1"/><stop offset=".51" stop-color="#abaaab"/><stop offset=".57" stop-color="#8a898b"/><stop offset=".63" stop-color="#6f6e70"/><stop offset=".7" stop-color="#5a595b"/><stop offset=".77" stop-color="#4c4b4d"/><stop offset=".86" stop-color="#434244"/><stop offset="1" stop-color="#414042"/></linearGradient><linearGradient id="linear-gradient-2" x1="98.65" y1="122.32" x2="105.27" y2="123.49" gradientUnits="userSpaceOnUse"><stop offset="0" stop-color="#414042"/><stop offset=".11" stop-color="#8d95a2"/><stop offset=".25" stop-color="#d1d3d4"/><stop offset=".37" stop-color="#fff"/><stop offset="1" stop-color="#414042"/></linearGradient><linearGradient id="linear-gradient-3" x1="63.03" y1="129.04" x2="215.86" y2="129.04" gradientUnits="userSpaceOnUse"><stop offset="0" stop-color="#8d95a2"/><stop offset=".13" stop-color="#d1d3d4"/><stop offset=".28" stop-color="#fff"/><stop offset=".32" stop-color="#f2dcad"/><stop offset=".36" stop-color="#e9c16e"/><stop offset=".39" stop-color="#e3b147"/><stop offset=".41" stop-color="#e1ab39"/><stop offset=".41" stop-color="#dda737"/><stop offset=".44" stop-color="#b17d29"/><stop offset=".47" stop-color="#8f5c1e"/><stop offset=".5" stop-color="#774416"/><stop offset=".53" stop-color="#683511"/><stop offset=".56" stop-color="#633110"/><stop offset=".58" stop-color="#703f17"/><stop offset=".64" stop-color="#9b6d2d"/><stop offset=".71" stop-color="#bd913f"/><stop offset=".77" stop-color="#d5ab4b"/><stop offset=".82" stop-color="#e3bb53"/><stop offset=".87" stop-color="#e9c156"/></linearGradient><linearGradient id="linear-gradient-4" x1="34.14" y1="122.14" x2="169.76" y2="122.14" gradientUnits="userSpaceOnUse"><stop offset="0" stop-color="#e9c156"/><stop offset=".22" stop-color="#ffa"/><stop offset=".47" stop-color="#e1ab39"/><stop offset=".75" stop-color="#633110"/><stop offset="1" stop-color="#e9c156"/></linearGradient><linearGradient id="linear-gradient-5" x1="16.88" y1="140.45" x2="192.33" y2="172.99" gradientUnits="userSpaceOnUse"><stop offset="0" stop-color="#8d95a2"/><stop offset=".18" stop-color="#d1d3d4"/><stop offset=".31" stop-color="#fff"/><stop offset=".42" stop-color="#fefefd"/><stop offset=".45" stop-color="#fdfbf6"/><stop offset=".48" stop-color="#fbf6ea"/><stop offset=".5" stop-color="#f9efd9"/><stop offset=".52" stop-color="#f5e5c3"/><stop offset=".54" stop-color="#f1daa8"/><stop offset=".55" stop-color="#eccc87"/><stop offset=".57" stop-color="#e7bd63"/><stop offset=".58" stop-color="#e1ab3a"/><stop offset=".58" stop-color="#e1ab39"/><stop offset=".64" stop-color="#dfa938"/><stop offset=".67" stop-color="#d8a438"/><stop offset=".68" stop-color="#cc9a37"/><stop offset=".7" stop-color="#bb8d36"/><stop offset=".71" stop-color="#a57b35"/><stop offset=".72" stop-color="#8a6534"/><stop offset=".73" stop-color="#6a4c32"/><stop offset=".73" stop-color="#634632"/><stop offset=".74" stop-color="#725436"/><stop offset=".75" stop-color="#92713e"/><stop offset=".77" stop-color="#ad8a46"/><stop offset=".79" stop-color="#c39e4b"/><stop offset=".81" stop-color="#d4ae50"/><stop offset=".84" stop-color="#e0b953"/><stop offset=".89" stop-color="#e7bf55"/><stop offset="1" stop-color="#e9c156"/></linearGradient><linearGradient id="linear-gradient-6" x1="17.63" y1="136.4" x2="193.08" y2="168.93" xlink:href="#linear-gradient-5"/><linearGradient id="linear-gradient-7" x1="18.35" y1="132.51" x2="193.8" y2="165.04" xlink:href="#linear-gradient-5"/><linearGradient id="linear-gradient-8" x1="18.93" y1="129.36" x2="194.38" y2="161.89" xlink:href="#linear-gradient-5"/><linearGradient id="linear-gradient-9" x1="19.62" y1="125.67" x2="195.07" y2="158.2" xlink:href="#linear-gradient-5"/><linearGradient id="linear-gradient-10" x1="20.22" y1="122.42" x2="195.67" y2="154.95" xlink:href="#linear-gradient-5"/><linearGradient id="linear-gradient-11" x1="20.89" y1="118.81" x2="196.34" y2="151.34" xlink:href="#linear-gradient-5"/><linearGradient id="linear-gradient-12" x1="21.55" y1="115.23" x2="197" y2="147.77" xlink:href="#linear-gradient-5"/><linearGradient id="linear-gradient-13" x1="22.29" y1="111.25" x2="197.74" y2="143.78" xlink:href="#linear-gradient-5"/><linearGradient id="linear-gradient-14" x1="86.78" y1="128.41" x2="98.38" y2="133.29" xlink:href="#linear-gradient-2"/><linearGradient id="linear-gradient-15" x1="104.99" y1="128.54" x2="119.41" y2="136.19" gradientUnits="userSpaceOnUse"><stop offset="0" stop-color="#e9c156"/><stop offset=".03" stop-color="#e7bb4f"/><stop offset=".1" stop-color="#e3b242"/><stop offset=".2" stop-color="#e1ac3b"/><stop offset=".42" stop-color="#e1ab39"/><stop offset=".62" stop-color="#8f5c1e"/><stop offset=".75" stop-color="#633110"/><stop offset="1" stop-color="#e9c156"/></linearGradient></defs><g id="Layer_1-2"><g><rect class="cls-12" width="250" height="250"/><g><g><polygon class="cls-11" points="109.03 101.42 105.85 121.29 106.04 101.17 109.03 101.42"/><polygon class="cls-1" points="105.34 101.61 100.05 144.45 102.35 101.35 105.34 101.61"/><path class="cls-10" d="m63.55,113.94c6.9,1.24,13.89,2.25,20.87,3.22,6.98.95,13.98,1.85,20.99,2.62,7,.77,14.04,1.58,21,1.93,1.69.06,3.48,0,5.24,0l5.29-.08c3.52-.07,7.04-.18,10.56-.35,7.03-.36,14.05-.93,21.01-1.96,1.75-.25,3.46-.55,5.23-.83,1.76-.27,3.53-.47,5.3-.61,3.54-.29,7.1-.36,10.64-.18,3.54.18,7.09.6,10.54,1.48,1.72.44,3.42,1,5.03,1.77,1.61.76,3.13,1.78,4.33,3.12,2.39,2.69,3.66,6.15,4.34,9.6.33,1.74.51,3.51.51,5.28-.03,1.76-.11,3.57-.79,5.21.64-1.65.7-3.46.7-5.21-.03-1.76-.23-3.52-.59-5.24-.72-3.42-2.05-6.82-4.42-9.4-1.18-1.29-2.67-2.24-4.26-2.95-1.59-.72-3.27-1.23-4.98-1.63-3.42-.79-6.93-1.13-10.43-1.23-3.51-.1-7.02.06-10.51.42-1.74.18-3.48.42-5.21.72-1.71.31-3.47.66-5.21.95-6.99,1.19-14.04,1.93-21.1,2.45-3.53.25-7.07.44-10.6.59l-5.3.19c-1.77.04-3.51.15-5.35.1-7.14-.27-14.15-1-21.2-1.67-7.04-.68-14.06-1.49-21.08-2.36-7.02-.89-14.02-1.8-21.03-2.97l.52-2.95Z"/><path class="cls-13" d="m169.07,119.32c-6.46-2.91-13.02-5.53-19.72-7.76-6.67-2.29-13.44-4.29-20.26-6.05-3.41-.84-6.83-1.61-10.26-2.12-3.44-.52-6.89-.73-10.38-.74-1.67.14-3.47.17-5.18.31-.86.08-1.73.13-2.59.23l-2.58.33c-3.43.51-6.84,1.25-10.19,2.17-6.7,1.84-13.28,4.4-19.25,7.82-.37.21-.74.43-1.09.67l-.53.34-.13.09-.09.06-.25.19c-.72.56-1.53,1.11-2.35,1.57-.89.52-1.79.83-2.54,1.16-.76.34-1.61.73-2.45,1.08-3.34,1.4-7.07,2.41-10.89,2.06-1.9-.17-3.79-.73-5.46-1.62-1.68-.85-3.13-2.15-4.44-2.96-.32-.18-.61-.29-.78-.28-.23.03-.22-.01-.4.24-.33.5-.53,1.37-.65,2.18-.23,1.67-.25,3.42-.21,5.17.22,7.01,1.46,14.02,2.7,20.98-.92-3.42-1.77-6.86-2.45-10.35-.69-3.48-1.28-6.99-1.59-10.56-.14-1.79-.23-3.59-.04-5.44.12-.93.21-1.86.79-2.89.15-.25.37-.53.71-.76.37-.23.67-.29,1.04-.33.72-.05,1.28.21,1.74.43.91.48,1.6,1.01,2.33,1.47.72.47,1.44.89,2.18,1.25,1.48.72,3.07,1.13,4.7,1.22,3.28.2,6.58-.82,9.7-2.19.8-.35,1.54-.71,2.39-1.11.86-.39,1.63-.69,2.26-1.08.71-.42,1.36-.89,2.03-1.42l.28-.22.18-.13.14-.1.58-.39c.38-.26.77-.51,1.16-.74,3.11-1.92,6.38-3.43,9.7-4.81,3.33-1.36,6.73-2.53,10.2-3.5,3.47-.96,7-1.69,10.57-2.19,3.59-.52,7.17-.64,10.8-.81,3.58.07,7.21.37,10.76.98,3.56.59,7.04,1.46,10.46,2.44,13.66,3.97,26.99,9.15,39.37,16.08Z"/><g><path class="cls-7" d="m44.71,141.99c2.29,0,3.44,1.15,3.43,2.84,0,1.24-.55,2.41-1.67,3.08-.87.53-1.79.7-3.06.7h-2.63l.08-.36c.76-.06.9-.2,1.03-.93l.78-4.01c.15-.78.11-.9-.73-.96l.08-.37h2.68Zm-1.45,5.17c-.17.93.35.99.87.99,1.55,0,2.52-1.56,2.52-3.41,0-1.29-.48-2.29-1.79-2.29-.58,0-.68.11-.78.64l-.8,4.08Z"/><path class="cls-4" d="m67.29,141.99c.53,0,1.03,0,1.42,0-.07.37-.18,1.2-.27,1.63l-.39.03c-.04-.92-.16-1.2-.85-1.2h-.7c-.39,0-.54.06-.62.45l-.39,2.06h.79c.86,0,.89-.12,1.18-.83h.39l-.42,2.15h-.39c.02-.78.01-.87-.84-.87h-.84l-.35,1.86c-.14.72-.06.9.56.9h.57c.58,0,.8-.08,1.06-.31.23-.2.55-.58.77-1.01l.37.14c-.12.38-.46,1.26-.62,1.62h-5.24l.08-.36c.82-.06.94-.14,1.09-.94l.79-4.02c.15-.8.07-.87-.74-.94l.1-.37h3.45Z"/><path class="cls-8" d="m89.65,141.78c-.12.42-.24,1.25-.34,1.86l-.4.02c0-.18-.02-.53-.07-.72-.07-.36-.24-.5-.9-.5h-.59l-.93,4.88c-.14.74-.09.88.86.94l-.08.36h-3.29l.08-.36c.87-.06.95-.21,1.09-.94l.95-4.88h-.43c-.75,0-.94.11-1.15.4-.16.2-.3.44-.47.8h-.4c.19-.68.37-1.31.46-1.86h.28c.11.21.2.21.48.21h4.04c.26,0,.29-.03.5-.21h.31Z"/><path class="cls-14" d="m108.98,148.61h-2.93l.09-.36c.71-.07.73-.2.67-.68-.05-.35-.11-.72-.17-1.13h-1.93c-.19.36-.44.75-.61,1.12-.21.45-.19.6.67.69l-.08.36h-2.51l.09-.36c.76-.1.87-.17,1.45-1.16l2.96-5.12.49-.07c.41,2.52.7,4.08.92,5.35.13.81.19.92.99,1.01l-.1.36Zm-2.76-4.94h-.02c-.4.75-.85,1.54-1.23,2.26h1.6l-.35-2.26Z"/><path class="cls-9" d="m127.6,142.36c-.83.06-.88.14-1.03.95l-.77,3.99c-.15.79-.08.89.78.95l-.09.37h-3.15l.07-.37c.77-.06.88-.15,1.03-.95l.78-3.99c.16-.8.1-.89-.73-.95l.09-.37h3.1l-.08.37Z"/><path class="cls-6" d="m147.22,146.86c-.11.39-.51,1.41-.7,1.75h-5.05l.07-.36c.78-.06.88-.15,1.03-.95l.79-4.09c.14-.72.05-.8-.74-.87l.09-.37h3.12l-.07.37c-.84.05-.92.15-1.05.88l-.78,3.99c-.14.77-.08.94.51.94h.52c.44,0,.76-.05,1.09-.35.24-.23.61-.71.82-1.09l.37.13Z"/><path class="cls-5" d="m165.87,142.36c-.83.06-.88.14-1.03.95l-.77,3.99c-.15.79-.08.89.78.95l-.09.37h-3.15l.07-.37c.77-.06.88-.15,1.03-.95l.78-3.99c.16-.8.1-.89-.73-.95l.09-.37h3.1l-.08.37Z"/><path class="cls-15" d="m187.71,142.36c-.68.04-.85.21-.96.63-.09.34-.19.74-.38,1.73l-.77,4h-.57l-2.94-5.21-.48,2.48c-.17.86-.23,1.29-.27,1.61-.04.48.16.6.95.65l-.08.36h-2.58l.07-.36c.64-.06.88-.18,1.02-.63.1-.34.2-.74.39-1.69l.52-2.49c.09-.45.03-.69-.14-.85-.15-.15-.41-.22-.77-.24l.09-.37h1.89l2.77,4.7.38-1.96c.2-1.03.24-1.44.27-1.72.05-.5-.21-.62-.93-.65l.08-.37h2.53l-.09.37Z"/><path class="cls-16" d="m207.75,143.88c-.02-1.31-.73-1.57-1.48-1.57-1.49,0-2.72,1.49-2.72,3.58,0,1.63.67,2.44,1.72,2.44.42,0,.78-.15.9-.74l.15-.78c.14-.76.04-.8-.94-.91l.09-.36h3.04l-.08.37c-.56.06-.62.12-.76.9l-.14.79c-.06.31-.07.58-.06.77-.58.16-1.4.4-2.21.4-1.96,0-3.21-1.06-3.21-2.92,0-2.4,1.87-3.99,4.36-3.99.87,0,1.6.16,2.01.24-.08.35-.18,1.02-.27,1.74l-.4.04Z"/></g></g><path class="cls-3" d="m94.55,132.78h-1.32l-.18,1.12c-.12.75-.03.95,1.06,1.01l-.15.54h-4.4l.12-.54c1.21-.11,1.33-.23,1.54-1.28l.15-.84h-3.88l.11-.6c1.87-2.08,3.98-4.41,5.92-6.36h1.07l-1.18,6.09h1.33l-.18.87Zm-2.19-4.89c-1.21,1.32-2.55,2.77-3.62,4.02h2.8l.86-4.02h-.03Z"/><path class="cls-2" d="m110.95,125.66c3.44,0,5.17,1.73,5.15,4.27-.02,1.87-.83,3.62-2.51,4.62-1.3.8-2.69,1.06-4.59,1.06h-3.95l.12-.54c1.15-.09,1.35-.31,1.54-1.39l1.18-6.03c.23-1.18.17-1.35-1.1-1.44l.12-.55h4.02Zm-2.17,7.75c-.26,1.39.52,1.48,1.3,1.48,2.33,0,3.78-2.34,3.78-5.12,0-1.94-.72-3.44-2.69-3.44-.87,0-1.02.17-1.18.96l-1.21,6.12Z"/></g></g></g></svg>