<?xml version="1.0" encoding="UTF-8"?>
<svg id="Layer_2" data-name="Layer 2" xmlns="http://www.w3.org/2000/svg" xmlns:xlink="http://www.w3.org/1999/xlink" viewBox="0 0 76.65 76.65">
  <defs>
    <style>
      .cls-1 {
        fill: url(#linear-gradient-2);
      }

      .cls-2 {
        fill: url(#linear-gradient-3);
      }

      .cls-3 {
        fill: url(#linear-gradient);
      }

      .cls-4 {
        fill: #060d0d;
      }

      .cls-5 {
        fill: url(#linear-gradient-4);
      }
    </style>
    <linearGradient id="linear-gradient" x1="31.11" y1="33.98" x2="33.71" y2="34.43" gradientUnits="userSpaceOnUse">
      <stop offset="0" stop-color="#414042"/>
      <stop offset=".11" stop-color="#8d95a2"/>
      <stop offset=".25" stop-color="#d1d3d4"/>
      <stop offset=".41" stop-color="#fff"/>
      <stop offset=".41" stop-color="#fdfdfd"/>
      <stop offset=".46" stop-color="#d1d1d1"/>
      <stop offset=".51" stop-color="#abaaab"/>
      <stop offset=".57" stop-color="#8a898b"/>
      <stop offset=".63" stop-color="#6f6e70"/>
      <stop offset=".7" stop-color="#5a595b"/>
      <stop offset=".77" stop-color="#4c4b4d"/>
      <stop offset=".86" stop-color="#434244"/>
      <stop offset="1" stop-color="#414042"/>
    </linearGradient>
    <linearGradient id="linear-gradient-2" x1="28.44" y1="38.04" x2="31.71" y2="38.61" gradientUnits="userSpaceOnUse">
      <stop offset="0" stop-color="#414042"/>
      <stop offset=".11" stop-color="#8d95a2"/>
      <stop offset=".25" stop-color="#d1d3d4"/>
      <stop offset=".37" stop-color="#fff"/>
      <stop offset="1" stop-color="#414042"/>
    </linearGradient>
    <linearGradient id="linear-gradient-3" x1="16.04" y1="40.32" x2="71.34" y2="40.32" gradientUnits="userSpaceOnUse">
      <stop offset="0" stop-color="#8d95a2"/>
      <stop offset=".13" stop-color="#d1d3d4"/>
      <stop offset=".28" stop-color="#fff"/>
      <stop offset=".32" stop-color="#f2dcad"/>
      <stop offset=".36" stop-color="#e9c16e"/>
      <stop offset=".39" stop-color="#e3b147"/>
      <stop offset=".41" stop-color="#e1ab39"/>
      <stop offset=".41" stop-color="#dda737"/>
      <stop offset=".44" stop-color="#b17d29"/>
      <stop offset=".47" stop-color="#8f5c1e"/>
      <stop offset=".5" stop-color="#774416"/>
      <stop offset=".53" stop-color="#683511"/>
      <stop offset=".56" stop-color="#633110"/>
      <stop offset=".58" stop-color="#703f17"/>
      <stop offset=".64" stop-color="#9b6d2d"/>
      <stop offset=".71" stop-color="#bd913f"/>
      <stop offset=".77" stop-color="#d5ab4b"/>
      <stop offset=".82" stop-color="#e3bb53"/>
      <stop offset=".87" stop-color="#e9c156"/>
    </linearGradient>
    <linearGradient id="linear-gradient-4" x1="5.31" y1="37.85" x2="54.57" y2="37.85" gradientUnits="userSpaceOnUse">
      <stop offset="0" stop-color="#e9c156"/>
      <stop offset=".22" stop-color="#ffa"/>
      <stop offset=".47" stop-color="#e1ab39"/>
      <stop offset=".75" stop-color="#633110"/>
      <stop offset="1" stop-color="#e9c156"/>
    </linearGradient>
  </defs>
  <g id="Layer_1-2" data-name="Layer 1">
    <g>
      <rect class="cls-4" width="76.65" height="76.65"/>
      <g>
        <polygon class="cls-3" points="33.7 30.75 32.1 37.83 31.71 30.59 33.7 30.75"/>
        <polygon class="cls-1" points="31.74 30.76 29.39 46.07 29.75 30.58 31.74 30.76"/>
        <path class="cls-2" d="m16.39,34.68c4.93.88,9.95,1.57,14.95,2.17,2.5.29,5.03.59,7.49.73,2.46.03,5.03.01,7.52-.08,2.51-.1,5.02-.28,7.51-.63,2.47-.42,5.08-.68,7.62-.51,1.27.08,2.55.24,3.79.57,1.22.34,2.5.81,3.37,1.81.87.97,1.31,2.23,1.55,3.47.2,1.24.3,2.56-.13,3.76.39-1.21.24-2.52.01-3.74-.27-1.22-.75-2.43-1.6-3.33-.84-.92-2.09-1.31-3.29-1.6-1.22-.27-2.47-.38-3.72-.4-2.52-.06-4.97.29-7.46.82-2.51.45-5.04.74-7.57.95-2.55.2-5.04.34-7.64.39-2.59-.08-5.09-.33-7.62-.56-5.06-.48-10.08-1.05-15.13-1.83l.35-1.97Z"/>
        <path class="cls-5" d="m54.11,37.06c-4.71-1.91-9.54-3.39-14.42-4.59-2.44-.58-4.84-.99-7.31-.94-1.19.09-2.44.13-3.64.32-1.21.18-2.41.45-3.59.77-2.36.64-4.7,1.55-6.8,2.73-.25.14-.53.32-.72.45-.27.2-.58.41-.89.59-.36.21-.7.32-.96.43l-.89.38c-1.23.51-2.63.86-4.08.72-.72-.07-1.44-.3-2.07-.64-.62-.33-1.18-.84-1.58-1.1-.09-.06-.16-.08-.13-.08-.01.02.12-.09.06-.05-.08.1-.17.4-.21.67-.09.57-.11,1.19-.11,1.81.04,2.49.4,5.01.76,7.53-.74-2.43-1.37-4.9-1.66-7.48-.06-.65-.11-1.3-.05-1.99.04-.35.06-.69.3-1.15.07-.11.16-.25.34-.36.19-.12.32-.14.5-.16.34-.02.58.09.77.18.69.38,1.11.71,1.63.94.5.23,1.02.36,1.57.38,1.09.05,2.21-.32,3.29-.8l.85-.4c.32-.15.58-.25.77-.37.23-.14.44-.3.68-.49.33-.25.58-.41.87-.6,2.28-1.39,4.72-2.32,7.23-3.05,2.52-.71,5.15-1.03,7.79-1.07,2.61.06,5.25.54,7.69,1.31,4.89,1.5,9.67,3.44,14.01,6.11Z"/>
      </g>
    </g>
  </g>
</svg>