<?xml version="1.0" encoding="UTF-8"?>
<svg id="Layer_2" data-name="Layer 2" xmlns="http://www.w3.org/2000/svg" xmlns:xlink="http://www.w3.org/1999/xlink" viewBox="0 0 487.66 216.09">
  <defs>
    <style>
      .cls-1 {
        stroke: url(#linear-gradient-2);
      }

      .cls-1, .cls-2, .cls-3, .cls-4, .cls-5, .cls-6, .cls-7, .cls-8, .cls-9 {
        stroke-miterlimit: 10;
      }

      .cls-1, .cls-5 {
        stroke-width: 4px;
      }

      .cls-1, .cls-5, .cls-10 {
        fill: #111313;
      }

      .cls-11 {
        fill: url(#linear-gradient-17);
      }

      .cls-2 {
        stroke: url(#linear-gradient-42);
      }

      .cls-2, .cls-3, .cls-4, .cls-6, .cls-7, .cls-8, .cls-9 {
        stroke-width: .75px;
      }

      .cls-2, .cls-4, .cls-6, .cls-7, .cls-8, .cls-9 {
        fill: none;
      }

      .cls-3 {
        fill: url(#linear-gradient);
      }

      .cls-3, .cls-4 {
        stroke: #101212;
      }

      .cls-12 {
        fill: url(#linear-gradient-15);
      }

      .cls-13 {
        fill: url(#linear-gradient-18);
      }

      .cls-14 {
        fill: url(#linear-gradient-28);
      }

      .cls-15 {
        fill: url(#linear-gradient-14);
      }

      .cls-16 {
        fill: url(#linear-gradient-36);
      }

      .cls-17 {
        fill: url(#linear-gradient-20);
      }

      .cls-18 {
        fill: url(#linear-gradient-6);
      }

      .cls-19 {
        fill: url(#linear-gradient-35);
      }

      .cls-5 {
        stroke: url(#linear-gradient-3);
      }

      .cls-20 {
        fill: url(#linear-gradient-32);
      }

      .cls-21 {
        fill: url(#linear-gradient-11);
      }

      .cls-22 {
        filter: url(#drop-shadow-1);
      }

      .cls-23 {
        fill: url(#linear-gradient-10);
      }

      .cls-6 {
        stroke: url(#linear-gradient-39);
      }

      .cls-24 {
        fill: url(#linear-gradient-37);
      }

      .cls-25 {
        fill: url(#linear-gradient-16);
      }

      .cls-26 {
        fill: url(#linear-gradient-31);
      }

      .cls-7 {
        stroke: url(#linear-gradient-40);
      }

      .cls-27 {
        fill: url(#linear-gradient-21);
      }

      .cls-28 {
        fill: url(#linear-gradient-25);
      }

      .cls-29 {
        fill: url(#linear-gradient-5);
      }

      .cls-8 {
        stroke: #727373;
      }

      .cls-30 {
        fill: url(#linear-gradient-34);
      }

      .cls-31 {
        fill: url(#linear-gradient-7);
      }

      .cls-32 {
        fill: url(#linear-gradient-24);
      }

      .cls-33 {
        fill: url(#linear-gradient-9);
      }

      .cls-34 {
        fill: url(#linear-gradient-22);
      }

      .cls-35 {
        fill: url(#linear-gradient-27);
      }

      .cls-36 {
        fill: #101212;
      }

      .cls-37 {
        fill: url(#linear-gradient-33);
      }

      .cls-38 {
        fill: url(#linear-gradient-38);
      }

      .cls-39 {
        fill: url(#linear-gradient-29);
      }

      .cls-40 {
        fill: url(#linear-gradient-30);
      }

      .cls-41 {
        fill: url(#linear-gradient-23);
      }

      .cls-42 {
        fill: url(#linear-gradient-19);
      }

      .cls-43 {
        fill: url(#linear-gradient-4);
      }

      .cls-44 {
        fill: url(#linear-gradient-8);
      }

      .cls-9 {
        stroke: url(#linear-gradient-41);
      }

      .cls-45 {
        fill: url(#linear-gradient-12);
      }

      .cls-46 {
        fill: url(#linear-gradient-13);
      }

      .cls-47 {
        fill: url(#linear-gradient-26);
      }
    </style>
    <linearGradient id="linear-gradient" x1="111.84" y1="-39.28" x2="372.45" y2="221.32" gradientUnits="userSpaceOnUse">
      <stop offset="0" stop-color="#7b6e3d"/>
      <stop offset=".25" stop-color="#948652"/>
      <stop offset=".5" stop-color="#66542a"/>
      <stop offset=".75" stop-color="#716155"/>
      <stop offset="1" stop-color="#7b6e3d"/>
    </linearGradient>
    <filter id="drop-shadow-1" filterUnits="userSpaceOnUse">
      <feOffset dx="0" dy="0"/>
      <feGaussianBlur result="blur" stdDeviation="3"/>
      <feFlood flood-color="#231f20" flood-opacity=".75"/>
      <feComposite in2="blur" operator="in"/>
      <feComposite in="SourceGraphic"/>
    </filter>
    <linearGradient id="linear-gradient-2" x1="35.87" y1="193.48" x2="452.88" y2="192.61" gradientUnits="userSpaceOnUse">
      <stop offset="0" stop-color="#7e8185"/>
      <stop offset=".25" stop-color="#a2a5aa"/>
      <stop offset=".5" stop-color="#727373"/>
      <stop offset=".75" stop-color="#5e5f5f"/>
      <stop offset="1" stop-color="#7e8185"/>
    </linearGradient>
    <linearGradient id="linear-gradient-3" x1="0" y1="136.59" x2="487.66" y2="136.59" xlink:href="#linear-gradient-2"/>
    <linearGradient id="linear-gradient-4" x1="50.09" y1="134.94" x2="435.39" y2="134.94" xlink:href="#linear-gradient"/>
    <linearGradient id="linear-gradient-5" x1="50.09" y1="134.94" x2="435.39" y2="134.94" xlink:href="#linear-gradient"/>
    <linearGradient id="linear-gradient-6" x1="50.09" y1="134.94" x2="435.39" y2="134.94" xlink:href="#linear-gradient"/>
    <linearGradient id="linear-gradient-7" x1="50.09" y1="134.94" x2="435.39" y2="134.94" xlink:href="#linear-gradient"/>
    <linearGradient id="linear-gradient-8" x1="50.09" y1="134.94" x2="435.39" y2="134.94" xlink:href="#linear-gradient"/>
    <linearGradient id="linear-gradient-9" x1="50.09" y1="134.94" x2="435.39" y2="134.94" xlink:href="#linear-gradient"/>
    <linearGradient id="linear-gradient-10" x1="50.09" y1="134.94" x2="435.39" y2="134.94" xlink:href="#linear-gradient"/>
    <linearGradient id="linear-gradient-11" x1="50.09" y1="134.94" x2="435.39" y2="134.94" xlink:href="#linear-gradient"/>
    <linearGradient id="linear-gradient-12" x1="50.09" y1="134.94" x2="435.39" y2="134.94" xlink:href="#linear-gradient"/>
    <linearGradient id="linear-gradient-13" x1="50.09" y1="134.94" x2="435.39" y2="134.94" xlink:href="#linear-gradient"/>
    <linearGradient id="linear-gradient-14" x1="50.09" y1="134.94" x2="435.39" y2="134.94" xlink:href="#linear-gradient"/>
    <linearGradient id="linear-gradient-15" x1="-17.25" y1="191.87" x2="725.92" y2="200.77" xlink:href="#linear-gradient-2"/>
    <linearGradient id="linear-gradient-16" x1="-17.25" y1="191.87" x2="725.92" y2="200.77" xlink:href="#linear-gradient-2"/>
    <linearGradient id="linear-gradient-17" x1="-17.25" y1="191.87" x2="725.92" y2="200.77" xlink:href="#linear-gradient-2"/>
    <linearGradient id="linear-gradient-18" x1="-17.25" y1="191.87" x2="725.92" y2="200.77" xlink:href="#linear-gradient-2"/>
    <linearGradient id="linear-gradient-19" x1="-17.25" y1="191.87" x2="725.92" y2="200.77" xlink:href="#linear-gradient-2"/>
    <linearGradient id="linear-gradient-20" x1="-17.25" y1="191.87" x2="725.92" y2="200.77" xlink:href="#linear-gradient-2"/>
    <linearGradient id="linear-gradient-21" x1="-17.25" y1="191.87" x2="725.92" y2="200.77" xlink:href="#linear-gradient-2"/>
    <linearGradient id="linear-gradient-22" x1="-17.25" y1="191.87" x2="725.92" y2="200.77" xlink:href="#linear-gradient-2"/>
    <linearGradient id="linear-gradient-23" x1="-17.25" y1="191.87" x2="725.92" y2="200.77" xlink:href="#linear-gradient-2"/>
    <linearGradient id="linear-gradient-24" x1="-17.25" y1="191.87" x2="725.92" y2="200.77" xlink:href="#linear-gradient-2"/>
    <linearGradient id="linear-gradient-25" x1="-17.25" y1="191.87" x2="725.92" y2="200.77" xlink:href="#linear-gradient-2"/>
    <linearGradient id="linear-gradient-26" x1="-17.25" y1="191.87" x2="725.92" y2="200.77" xlink:href="#linear-gradient-2"/>
    <linearGradient id="linear-gradient-27" x1="-17.25" y1="191.87" x2="725.92" y2="200.77" xlink:href="#linear-gradient-2"/>
    <linearGradient id="linear-gradient-28" x1="-17.25" y1="191.87" x2="725.92" y2="200.77" xlink:href="#linear-gradient-2"/>
    <linearGradient id="linear-gradient-29" x1="-17.25" y1="191.87" x2="725.92" y2="200.77" xlink:href="#linear-gradient-2"/>
    <linearGradient id="linear-gradient-30" x1="-17.25" y1="191.87" x2="725.92" y2="200.77" xlink:href="#linear-gradient-2"/>
    <linearGradient id="linear-gradient-31" x1="-17.25" y1="191.87" x2="725.92" y2="200.77" xlink:href="#linear-gradient-2"/>
    <linearGradient id="linear-gradient-32" x1="-17.25" y1="191.87" x2="725.92" y2="200.77" xlink:href="#linear-gradient-2"/>
    <linearGradient id="linear-gradient-33" x1="-17.25" y1="191.87" x2="725.92" y2="200.77" xlink:href="#linear-gradient-2"/>
    <linearGradient id="linear-gradient-34" x1="-17.25" y1="191.87" x2="725.92" y2="200.77" xlink:href="#linear-gradient-2"/>
    <linearGradient id="linear-gradient-35" x1="-17.25" y1="191.87" x2="725.92" y2="200.77" xlink:href="#linear-gradient-2"/>
    <linearGradient id="linear-gradient-36" x1="-17.25" y1="191.87" x2="725.92" y2="200.77" xlink:href="#linear-gradient-2"/>
    <linearGradient id="linear-gradient-37" x1="-17.25" y1="191.87" x2="725.92" y2="200.77" xlink:href="#linear-gradient-2"/>
    <linearGradient id="linear-gradient-38" x1="-17.25" y1="191.87" x2="725.92" y2="200.77" xlink:href="#linear-gradient-2"/>
    <linearGradient id="linear-gradient-39" x1="183.88" y1="194.6" x2="201.75" y2="194.69" xlink:href="#linear-gradient-2"/>
    <linearGradient id="linear-gradient-40" x1="184.83" y1="191.59" x2="200.83" y2="191.59" gradientUnits="userSpaceOnUse">
      <stop offset="0" stop-color="#7e8185"/>
      <stop offset=".25" stop-color="#a2a5aa"/>
      <stop offset=".5" stop-color="#727373"/>
      <stop offset=".75" stop-color="#5e5f5f"/>
      <stop offset="1" stop-color="#7e8185"/>
    </linearGradient>
    <linearGradient id="linear-gradient-41" x1="305.7" y1="194.6" x2="323.57" y2="194.69" xlink:href="#linear-gradient-2"/>
    <linearGradient id="linear-gradient-42" x1="306.83" x2="322.83" xlink:href="#linear-gradient-40"/>
  </defs>
  <g id="Layer_2-2" data-name="Layer 2">
    <g>
      <g>
        <rect class="cls-10" x="43.83" y="73.09" width="396" height="44"/>
        <path class="cls-36" d="m419.28,72.86s0,0,0,0c.01.05,1.34,4.47,23.47,11.09l21.64,6.96s0,0,0,0l2.81,1.68s.51-1.76.51-1.77l2.32-10.94s.55.19.54.18l-23.77-8.11s0,0,0,0l-27.72-1.45s-.03.01-.03.03l.23,2.34Z"/>
        <path class="cls-36" d="m29.68,45.09l27.95.19-2.52,10.02c-8.62,2.17-17.23,4.33-25.85,6.5-.27-2.78-.54-5.56-.8-8.33-.26-.81-.57-2.16-.42-3.82.21-2.21,1.13-3.8,1.64-4.55Z"/>
        <path class="cls-3" d="m131.3,130.59l215.3,1.53s-8.13-50.68,41.44-52.76c47.4-1.99,40.06,55.36,40.06,57.5l21.25-4.59s5.81-.76,12.84-3.36,6.58-4.59,6.58-4.59l-2.14-4.74-.61-5.05s-1.53-5.71.31-8.31l.15-13.56s.31-2.45-2.75-3.9c-3.06-1.45-30.81-9.63-30.81-9.63,0,0-9.4-3.21-12.39-7.03l17.36.38s7.87-.23,12.62,1.22c4.74,1.45,18.73,5.89,18.73,5.89l-.23-3.82s-18.73-13.38-49.47-20.8c-30.74-7.42-66.59-9.56-79.97-9.63,0,0-51.17-33.52-98.88-40.65,0,0-45.47-10.81-133.75,1.84l-30.61,4.37v2.63l-4.51,6.27s-23.18,7.84-36.33,17.93c0,0-3.7,1.36-6.15,8.09,0,0,.67-.41,6.33-.18l18.95,1.15s1.91.69.08,2.67c0,0-.99,1.6-4.81,3.21-3.82,1.6-16.97,4.59-16.97,4.59l-1.6,2.67-1.99.53.08,5.31s1.29,2.06-5.53,6.81l-4.55,2.98v15.22l.76,10.78-1.67,4.36s1.44,5.35,2.8,5.96c0,0,3.48,7.65,30.76,14.91,0,0-4.09-42.99,29.68-48.1,0,0,47.52-9.25,49.64,51.93Z"/>
        <path class="cls-10" d="m294.46,57.43s6.31.88,7.34-3.48c0,0-.11-2.22-4.36-3.86l-3.29-1.84,3.33-3.52s1.22-1.91-1.72-3.59c-2.94-1.68-5.2-4.28-13.88-5.39,0,0-2.87.04-4.7,4.51l.61,7.26s.99,3.33,3.36,3.48l4.63.84s2.37.46,3.25,3.25c.88,2.79,5.43,2.33,5.43,2.33Z"/>
        <path class="cls-10" d="m469.12,79.57c-34.98-11.61-71.13-20.22-107.81-24.09-12.24-1.13-24.53-1.56-36.77-1.08-27.34-1.28-82.14-3.96-109.46-5.38-22.78-1.54-45.75-1.43-68.44-4.53-4.57-.71-9.11-1.51-13.7-3.02-2.25-.73-4.53-2.13-6.44-3.45-3.67-2.45-8.68-5.97-12.52-8.04-2.59-1.42-2.23-4.22-.44-6.06,2.2-2.36,5.08-3.94,8.14-4.8,4.42-1.36,8.82-2.55,13.31-3.66,1.68-.41,3.49-.85,5.22-1.1,18.73-2.39,37.58-3.79,56.46-4.11,9.15-.14,18.32-.17,27.5.59,13.78,1.2,27.27,4.64,40.07,9.77,3.17,1.31,6.41,2.62,9.39,4.32,17.02,9.31,34.08,18.57,51.04,27.97-17.29-8.77-34.51-17.68-51.74-26.54-15.28-7.27-32.11-11.68-48.95-13-18.1-1.03-36.39.02-54.47,1.44-9.88.84-19.77,1.85-29.58,3.25-6.49,1.46-13.04,3.23-19.32,5.42-1.7.83-3.75,2.1-4.7,3.68.06-.13-.07-.52-.19-.56.02,0,.05,0,.06.03,0,0,.1.05.1.05,3.99,2.18,8.96,5.6,12.78,8.15,1.73,1.19,3.58,2.37,5.57,3,17.26,5.73,62.61,5.78,81.1,7.32,27.21,1.46,82.11,4.58,109.31,6.19,11.56-.32,24.92.33,36.95,1.64,36.77,4.38,72.84,13.82,107.54,26.61h0Z"/>
        <path class="cls-4" d="m198.23,11.67l8.26,34.56s7.34,23.86,6.73,40.99l3.98,27.22"/>
        <path class="cls-36" d="m40.3,108.11c5.14-15.67,16.49-30.51,32.66-35.68,10.72-3.45,22.53-2.57,33.07,1.18,13.32,4.84,23.88,15.53,30.16,28.07,1.27,2.52,2.39,5.07,3.27,7.81l-.83-.66c66.2,3.76,139.72,8.36,205.89,13.15-66.29-3.07-139.81-7.21-206-11.32,0,0-.63-.04-.63-.04,0,0-.2-.62-.2-.62-5.19-15.38-16.84-29.11-32.2-34.98-10.19-3.77-21.74-4.78-32.21-1.56-16.05,4.88-27.45,19.3-32.99,34.65h0Z"/>
        <path class="cls-36" d="m435.58,119.33c-2.62-27.89-22.26-44.91-49.89-45.75-5.21-.07-10.4,1.63-15.37,3.11-1.75.56-3.48,1.16-5.21,1.77,0,0-.19-.02-.19-.02-36.45-3.49-72.93-6.69-109.43-9.55-22.82-1.68-45.64-3.43-68.5-4.33-9.14-.38-18.29-.67-27.44-.45-4.56.19-9.18.23-13.62,1.4,8.89-2.29,18.23-1.88,27.34-2.09,27.48.08,54.94,1.8,82.34,3.71,36.54,2.59,73.03,5.88,109.47,9.6,4.65-1.88,14.38-4.85,20.67-4.62,28.13,1.31,47.9,18.64,49.82,47.23h0Z"/>
        <path class="cls-4" d="m118,21.56l-3.46,1.75c-1.74,1.42-4.18,3.55-6.89,6.36-4.26,4.41-6.41,6.68-7.23,9.9-.87,3.42.15,6.41,1.95,10.74,0,0,6.73,15.5,16.16,30.63l-.6-.77"/>
        <path class="cls-4" d="m326.08,54.03s3.67,3.67,4.28,17.28l-2.29,49.09"/>
      </g>
      <g class="cls-22">
        <path class="cls-1" d="m408.92,214.09H79.74c-16.37-16.37-25.54-25.54-41.91-41.91v-.09h413v.09c-16.37,16.37-25.54,25.54-41.91,41.91Z"/>
        <g>
          <path class="cls-5" d="m450.33,171.09H37.33c-13.47-13.47-21.03-21.03-34.5-34.5h0c13.47-13.47,21.03-21.03,34.5-34.5h413c13.47,13.47,21.03,21.03,34.5,34.5h0c-13.47,13.47-21.03,21.03-34.5,34.5Z"/>
          <g>
            <path class="cls-43" d="m71.36,142.96c0,1.71.02,2.89.06,3.56.04.67.07,1.21.11,1.61l3.51.83-.17,2.56h-14.53l-.17-2.56,4.68-.83c.04-.41.06-.95.06-1.61v-21.15l.84.5-10.47,13.92-.17-1.17h21.04v4.34h-25.55l-.5-2.39,17.81-21.93h3.62c-.04,1.34-.08,2.77-.14,4.31s-.08,3.11-.08,4.7l.06,15.31Z"/>
            <path class="cls-29" d="m83.45,118.85h14.75c5.97,0,10.63,1.4,13.97,4.2,3.34,2.8,5.01,6.71,5.01,11.72,0,3.27-.79,6.16-2.37,8.68-1.58,2.52-3.75,4.5-6.51,5.93-2.77,1.43-5.93,2.14-9.49,2.14h-15.37l-.17-2.56,3.51-.83c.11-.3.2-1.24.28-2.84.07-1.59.11-3.47.11-5.62v-8.91c0-2.3-.04-4.24-.11-5.82-.08-1.58-.17-2.48-.28-2.7l-3.51-.83.17-2.56Zm10.41,3.45c0,.3,0,.78-.03,1.45-.02.67-.04,1.57-.06,2.7-.02,1.13-.03,2.57-.03,4.31v8.91c0,1,0,2.02.03,3.06.02,1.04.06,1.99.11,2.84.06.85.1,1.54.14,2.06.96.15,1.88.27,2.76.36.87.09,1.7.14,2.48.14,3.41,0,6-.96,7.77-2.87,1.76-1.91,2.64-4.83,2.64-8.77,0-2.56-.3-4.75-.89-6.57-.59-1.82-1.43-3.32-2.5-4.51s-2.35-2.06-3.81-2.62-3.07-.83-4.82-.83c-.59,0-1.21.03-1.84.08s-1.28.14-1.95.25Z"/>
            <path class="cls-18" d="m138.8,118.85h14.75c5.97,0,10.63,1.4,13.97,4.2,3.34,2.8,5.01,6.71,5.01,11.72,0,3.27-.79,6.16-2.37,8.68-1.58,2.52-3.75,4.5-6.51,5.93-2.77,1.43-5.93,2.14-9.49,2.14h-15.37l-.17-2.56,3.51-.83c.11-.3.2-1.24.28-2.84.07-1.59.11-3.47.11-5.62v-8.91c0-2.3-.04-4.24-.11-5.82-.08-1.58-.17-2.48-.28-2.7l-3.51-.83.17-2.56Zm10.41,3.45c0,.3,0,.78-.03,1.45-.02.67-.04,1.57-.06,2.7-.02,1.13-.03,2.57-.03,4.31v8.91c0,1,0,2.02.03,3.06.02,1.04.06,1.99.11,2.84.06.85.1,1.54.14,2.06.96.15,1.88.27,2.76.36.87.09,1.7.14,2.48.14,3.41,0,6-.96,7.77-2.87,1.76-1.91,2.64-4.83,2.64-8.77,0-2.56-.3-4.75-.89-6.57-.59-1.82-1.43-3.32-2.5-4.51s-2.35-2.06-3.81-2.62-3.07-.83-4.82-.83c-.59,0-1.21.03-1.84.08s-1.28.14-1.95.25Z"/>
            <path class="cls-31" d="m206.45,151.87c-1-.11-2.14-.19-3.42-.25s-2.44-.08-3.48-.08h-19.15l-.17-2.56,3.51-.83c.07-.19.14-.65.2-1.39s.1-1.72.14-2.92c.04-1.21.06-2.59.06-4.15v-8.91c0-1.59-.02-3.01-.06-4.23-.04-1.22-.08-2.21-.14-2.95-.06-.74-.12-1.19-.2-1.34l-3.51-.83.17-2.56h17.42c.67,0,1.46,0,2.37-.03s1.82-.06,2.73-.11c.91-.06,1.7-.1,2.37-.14l1.34,7.96-2.95.39-2-4.79c-.45-.07-.85-.13-1.22-.17-.37-.04-.78-.06-1.22-.06h-4.9c-.71,0-1.36,0-1.98.03s-1.14.07-1.59.14c0,.22,0,.65-.03,1.28-.02.63-.04,1.41-.06,2.34-.02.93-.03,1.95-.03,3.06v12.8c0,1.04,0,2,.03,2.87.02.87.04,1.61.06,2.23.02.61.03,1.07.03,1.36.63.07,1.28.13,1.95.17s1.5.06,2.51.06h3.79c.89,0,1.58,0,2.06-.03.48-.02.85-.05,1.11-.08l.78-.11,3.01-5.46,2.95.56-2.45,8.74Zm-6.79-11.58l-.56-3.73c-.26-.04-.65-.07-1.17-.11-.52-.04-1.13-.06-1.84-.06h-3.34c-.59,0-1.18.02-1.75.06-.58.04-1.07.07-1.48.11v-3.62c.41.04.9.07,1.48.08.57.02,1.16.03,1.75.03h3.34c.7,0,1.32,0,1.84-.03.52-.02.91-.03,1.17-.03l.56-3.79h2.84v11.08h-2.84Z"/>
            <path class="cls-44" d="m243.71,118.58l1.28,9.58-3.12.28-2.23-6.35c-.41-.07-.81-.12-1.2-.14s-.79-.03-1.2-.03h-3.2c-.5,0-.9.04-1.2.11,0,.26,0,.95-.03,2.06-.02,1.11-.04,2.44-.06,3.98-.02,1.54-.03,3.09-.03,4.65v5.96c0,2.15.02,4.08.06,5.79.04,1.71.07,2.93.11,3.67l4.79.72-.17,2.67h-16.25l-.17-2.67,4.79-.72c.04-.74.07-1.97.11-3.67.04-1.71.06-3.64.06-5.79v-5.96c0-1.56,0-3.11-.03-4.65-.02-1.54-.03-2.87-.03-3.98s-.02-1.8-.06-2.06c-.3-.07-.69-.11-1.17-.11h-3.28c-.41,0-.82,0-1.22.03-.41.02-.82.07-1.22.14l-2.17,6.46-3.12-.33,1.17-9.63c.41.04.91.07,1.5.08s1.22.05,1.89.08c.67.04,1.32.07,1.95.08.63.02,1.19.03,1.67.03h14.75c.48,0,1.04,0,1.67-.03s1.28-.05,1.95-.08c.67-.04,1.3-.06,1.89-.08.59-.02,1.09-.05,1.5-.08Z"/>
            <path class="cls-33" d="m248.62,151.53l-.17-2.56,2.84-.83,11.36-27.89,4.18-2.39,12.58,30.28,2.84.83-.17,2.56h-13.64l-.17-2.56,3.51-.83-3.12-7.57-.61-1.84-5.73-13.81,1.5.06-5.01,13.64-.56,1.67-2.73,7.85,3.51.83-.17,2.56h-10.24Zm8.46-9.74v-3.51c.7.04,1.57.08,2.59.14s2.33.08,3.92.08,2.87-.03,3.92-.08,1.92-.1,2.59-.14v3.45c-.89,0-1.87-.02-2.92-.06-1.06-.04-2.25-.06-3.59-.06s-2.52.02-3.56.06c-1.04.04-2.02.08-2.95.11Z"/>
            <path class="cls-23" d="m286.93,151.53l-.17-2.56,3.51-.83c.07-.19.13-.65.17-1.39.04-.74.07-1.73.11-2.95.04-1.22.06-2.6.06-4.12v-8.91c0-1.59-.02-3.01-.06-4.23-.04-1.22-.08-2.22-.11-2.98-.04-.76-.09-1.2-.17-1.31l-3.51-.83.17-2.56h13.92l.17,2.56-3.51.83c-.07.15-.14.59-.19,1.34-.06.74-.09,1.72-.11,2.92-.02,1.21-.03,2.63-.03,4.26v8.91c0,1.56,0,2.94.03,4.15.02,1.21.06,2.18.11,2.92s.12,1.21.19,1.39l3.51.83-.17,2.56h-13.92Z"/>
            <path class="cls-21" d="m333.03,151.87c-.82-.08-1.71-.13-2.67-.17-.96-.04-1.88-.08-2.76-.11-.87-.04-1.61-.06-2.2-.06h-17.15l-.17-2.56,3.51-.83c.07-.19.13-.67.17-1.45.04-.78.06-1.78.08-3.01.02-1.22.03-2.56.03-4.01v-8.91c0-1.52,0-2.88-.03-4.09-.02-1.21-.05-2.2-.08-2.98-.04-.78-.09-1.24-.17-1.39l-3.51-.89.17-2.56h15.03l.17,2.67-4.62.78c-.04.11-.08.53-.14,1.25s-.1,1.7-.14,2.92-.06,2.65-.06,4.29v8.91c0,2.08.02,3.79.06,5.15.04,1.36.07,2.25.11,2.7.59.11,1.21.19,1.87.22.65.04,1.44.06,2.37.06h2.62c.89,0,1.64-.04,2.25-.11.61-.07,1.16-.15,1.64-.22l3.06-5.85,3.12.78-2.56,9.46Z"/>
            <path class="cls-45" d="m340.78,151.53l-.17-2.56,3.51-.83c.07-.19.13-.65.17-1.39.04-.74.07-1.73.11-2.95.04-1.22.06-2.6.06-4.12v-8.91c0-1.59-.02-3.01-.06-4.23-.04-1.22-.08-2.22-.11-2.98-.04-.76-.09-1.2-.17-1.31l-3.51-.83.17-2.56h13.92l.17,2.56-3.51.83c-.07.15-.14.59-.19,1.34-.06.74-.09,1.72-.11,2.92-.02,1.21-.03,2.63-.03,4.26v8.91c0,1.56,0,2.94.03,4.15.02,1.21.06,2.18.11,2.92s.12,1.21.19,1.39l3.51.83-.17,2.56h-13.92Z"/>
            <path class="cls-46" d="m388.34,141.96v-9.8c0-1.93,0-3.61-.03-5.04-.02-1.43-.06-2.56-.11-3.4s-.12-1.33-.19-1.48l-3.84-.83.17-2.56h11.41l.17,2.56-3.51.83c-.04.15-.08.64-.14,1.48s-.1,1.97-.14,3.4c-.04,1.43-.06,3.11-.06,5.04v11.47c0,1.56,0,2.99.03,4.29s.03,2.6.03,3.9h-3.12l-21.71-26.39,2.34-.06v12.36c0,2.08.02,3.86.06,5.34.04,1.49.08,2.64.14,3.48s.12,1.36.2,1.59l3.84.83-.17,2.56h-11.58l-.17-2.56,3.51-.83c.07-.22.13-.77.17-1.64.04-.87.07-2.06.11-3.56.04-1.5.06-3.24.06-5.21v-8.13c0-1.3-.02-2.48-.06-3.54-.04-1.06-.08-1.92-.14-2.59-.06-.67-.1-1.08-.14-1.22l-3.51-.83.17-2.56h8.41l19.65,23.1h-1.84Z"/>
            <path class="cls-15" d="m421.52,152.03c-3.49,0-6.61-.63-9.35-1.89-2.75-1.26-4.9-3.1-6.46-5.51-1.56-2.41-2.34-5.36-2.34-8.85,0-2.6.46-4.96,1.39-7.1.93-2.13,2.24-3.97,3.92-5.51,1.69-1.54,3.71-2.73,6.07-3.56,2.36-.83,4.98-1.25,7.88-1.25,1.63,0,3.3.17,5.01.5s3.14.78,4.29,1.34l.28,7.68-3.12.17-1.73-5.07c-.74-.45-1.61-.76-2.59-.95-.98-.18-1.88-.28-2.7-.28-2.41,0-4.43.54-6.04,1.61-1.61,1.08-2.82,2.56-3.62,4.45-.8,1.89-1.2,4.08-1.2,6.57,0,2.97.51,5.52,1.53,7.66,1.02,2.13,2.39,3.76,4.12,4.87,1.73,1.11,3.65,1.67,5.76,1.67.7,0,1.5-.1,2.39-.31.89-.2,1.69-.55,2.39-1.03l-1.11,3.06v-5.9c0-.93-.02-1.85-.06-2.75s-.09-1.61-.17-2.09l-3.9-.72.17-2.67h12.86l.17,2.56-2.67.78c-.04.26-.05.78-.03,1.56s.03,1.63.03,2.56c0,.74.02,1.53.06,2.37.04.83.07,1.85.11,3.03-1.56.96-3.35,1.71-5.37,2.23-2.02.52-4.02.78-5.98.78Z"/>
          </g>
        </g>
        <g>
          <g>
            <path class="cls-12" d="m100.15,201.24c-1.59,0-3-.29-4.23-.86-1.23-.57-2.2-1.42-2.91-2.53-.71-1.12-1.06-2.47-1.06-4.08,0-1.17.21-2.23.62-3.19.41-.96,1-1.79,1.77-2.48.77-.69,1.68-1.23,2.75-1.61,1.06-.38,2.25-.57,3.55-.57.74,0,1.5.08,2.28.23.78.15,1.44.35,2,.61l.18,3.75-1.42.1-.84-2.58c-.32-.19-.7-.32-1.13-.42-.43-.09-.87-.14-1.3-.14-1.08,0-1.98.25-2.7.73-.72.49-1.26,1.17-1.62,2.03s-.54,1.86-.54,2.99c0,1.35.23,2.51.68,3.47.46.96,1.07,1.7,1.84,2.2s1.62.76,2.57.76c.46,0,.92-.07,1.39-.2.47-.13.87-.33,1.19-.58l.96-2.3,1.52.15-.73,3.29c-.52.32-1.22.61-2.09.86-.87.25-1.78.38-2.72.38Zm-5.14-19.25l1.09-.71,4.33,2.2h-1.62l4.33-2.2,1.09.71-3.42,2.66h-2.38l-3.42-2.66Z"/>
            <path class="cls-25" d="m106.76,201.01l-.08-1.11,1.7-.38c.02-.07.03-.21.05-.43.02-.22.03-.51.05-.87.02-.36.03-.79.03-1.28l.03-1.92c0-.52-.02-1.01-.05-1.46-.03-.45-.09-.87-.18-1.25l-1.7-.35v-1.04l4.33-1.09.58.43c-.05.52-.09,1.05-.11,1.58-.03.53-.04,1.14-.04,1.84v3.19c0,.62.01,1.19.04,1.7s.06.83.11.96l1.7.38-.08,1.11h-6.38Zm3.22-13.55c-.59,0-1.06-.18-1.42-.54-.36-.36-.53-.8-.53-1.3s.18-.92.53-1.29c.35-.37.83-.56,1.42-.56s1.06.19,1.39.56c.34.37.51.8.51,1.29s-.17.94-.51,1.3c-.34.36-.8.54-1.39.54Z"/>
            <path class="cls-11" d="m118.46,201.22c-.68,0-1.35-.08-2.03-.23-.68-.15-1.24-.35-1.7-.61l-.13-2.89h1.5l.53,1.82c.61.39,1.27.58,2,.58.54,0,.96-.12,1.27-.35.3-.24.46-.55.46-.94s-.15-.75-.46-1.04c-.3-.29-.92-.61-1.85-.96-1.23-.47-2.09-.97-2.58-1.5-.49-.52-.73-1.18-.73-1.98,0-.66.2-1.24.61-1.75.41-.51.97-.9,1.68-1.19.72-.29,1.55-.43,2.5-.43.52,0,1.05.05,1.58.14.53.09.97.22,1.33.39l.28,2.84h-1.47l-.58-1.77c-.17-.1-.37-.18-.61-.24-.24-.06-.47-.09-.71-.09-.54,0-.98.12-1.3.37-.33.25-.49.56-.49.95,0,.42.19.78.57,1.06.38.29,1.06.64,2.04,1.06,1.11.47,1.9.96,2.37,1.47s.7,1.13.7,1.88c0,1.01-.44,1.83-1.33,2.46s-2.03.94-3.43.94Zm4.21-16.9l-2.66,4.15h-2.38l-2.66-4.15,1.29-.46,3.39,3.65h-1.62l3.34-3.65,1.29.46Z"/>
            <path class="cls-13" d="m130.37,201.22c-1.03,0-1.96-.23-2.8-.68s-1.5-1.1-2-1.92-.75-1.78-.75-2.86.26-2.07.79-2.98,1.25-1.63,2.17-2.18c.92-.55,1.97-.82,3.15-.82.74,0,1.4.1,1.96.29s1.01.46,1.33.8c.32.34.48.71.48,1.11,0,.37-.11.66-.34.86-.23.2-.52.3-.87.3-.3,0-.57-.06-.8-.18-.23-.12-.49-.31-.8-.58l-1.67-1.52,1.17.28c-.56-.12-1.1-.05-1.63.21-.53.26-.97.7-1.3,1.3-.34.61-.51,1.38-.51,2.33,0,1.32.33,2.32.98,3,.65.68,1.46,1.03,2.42,1.03.54,0,1.04-.11,1.51-.33.46-.22.92-.59,1.36-1.12l.76.68c-.47.98-1.11,1.72-1.92,2.22-.81.5-1.7.75-2.66.75Zm.66-12.44l-1.32-.43,2.51-4.48,2.63.58-3.82,4.33Z"/>
            <path class="cls-42" d="m141.69,201.22c-1.05,0-1.99-.24-2.82-.71-.84-.47-1.49-1.13-1.96-1.96s-.71-1.79-.71-2.88c0-1.18.26-2.22.79-3.1.52-.89,1.21-1.58,2.05-2.08.84-.5,1.75-.74,2.71-.72,1.47.02,2.59.48,3.36,1.39s1.15,2.1,1.15,3.57v.56h-7.5v-1.27h5.29l-.35.53v-.76c0-.84-.19-1.51-.57-2-.38-.49-.91-.73-1.58-.73-.44,0-.84.13-1.22.38-.37.25-.67.63-.89,1.14-.22.51-.33,1.14-.33,1.9v.46c0,1.25.32,2.25.97,2.99.65.74,1.52,1.12,2.6,1.12.57,0,1.09-.11,1.56-.32s.92-.58,1.38-1.1l.73.66c-.47.98-1.12,1.71-1.94,2.2-.82.49-1.73.74-2.72.74Z"/>
            <path class="cls-17" d="m147.62,201.01l-.08-1.09,1.57-.41c.02-.07.03-.21.05-.42.02-.21.03-.5.05-.86.02-.36.03-.8.03-1.3l.03-1.92c0-.54-.02-1.03-.05-1.47-.03-.44-.09-.85-.18-1.24l-1.62-.35v-1.04l4.13-1.09.61.43-.15,1.42.08.03c.54-.64,1.12-1.12,1.74-1.44.62-.32,1.27-.48,1.96-.48s1.32.17,1.89.52c.57.35,1.02.86,1.36,1.53.34.68.51,1.5.51,2.48v2.63c0,.57,0,1.11.03,1.61.02.5.05.82.1.98l1.57.41-.08,1.09h-5.95l-.08-1.09,1.47-.41c.03-.14.06-.33.08-.58.02-.25.03-.55.04-.89,0-.34.01-.68.01-1.04v-2.33c0-.66-.11-1.19-.32-1.61-.21-.41-.49-.72-.82-.91-.34-.19-.71-.29-1.11-.29-.47,0-.91.11-1.32.32-.41.21-.76.52-1.06.92v3.75c0,.64.01,1.21.04,1.71s.06.81.11.95l1.57.41-.08,1.09h-6.1Z"/>
            <path class="cls-27" d="m161.93,206.84l-.56-1.04c.84-.51,1.46-1.1,1.84-1.79.38-.68.57-1.57.57-2.65l.03-6.43c0-.64-.02-1.17-.06-1.58-.04-.41-.1-.76-.17-1.05l-1.7-.35v-1.04l4.36-1.09.58.43c-.05.47-.09.98-.11,1.52-.03.54-.04,1.23-.04,2.08l.03,6.92c0,.62-.11,1.24-.34,1.85-.23.61-.55,1.18-.97,1.71-.42.53-.92,1.01-1.51,1.44-.58.43-1.23.79-1.94,1.08Zm3.32-19.38c-.59,0-1.06-.18-1.42-.54-.36-.36-.53-.8-.53-1.3s.18-.92.53-1.29c.35-.37.83-.56,1.42-.56s1.06.19,1.39.56c.34.37.51.8.51,1.29s-.17.94-.51,1.3-.8.54-1.39.54Z"/>
            <path class="cls-34" d="m174.95,201.22c-1.05,0-1.99-.24-2.82-.71-.84-.47-1.49-1.13-1.96-1.96s-.71-1.79-.71-2.88c0-1.18.26-2.22.79-3.1.52-.89,1.21-1.58,2.05-2.08.84-.5,1.75-.74,2.71-.72,1.47.02,2.59.48,3.36,1.39s1.15,2.1,1.15,3.57v.56h-7.5v-1.27h5.29l-.35.53v-.76c0-.84-.19-1.51-.57-2-.38-.49-.91-.73-1.58-.73-.44,0-.84.13-1.22.38-.37.25-.67.63-.89,1.14-.22.51-.33,1.14-.33,1.9v.46c0,1.25.32,2.25.97,2.99.65.74,1.52,1.12,2.6,1.12.57,0,1.09-.11,1.56-.32s.92-.58,1.38-1.1l.73.66c-.47.98-1.12,1.71-1.94,2.2-.82.49-1.73.74-2.72.74Z"/>
            <path class="cls-41" d="m206.13,201.01l-.08-1.17,1.5-.38c.03-.07.06-.25.08-.56.02-.3.03-.72.05-1.25.02-.53.02-1.17.02-1.91l.03-4.43c0-.71,0-1.33-.03-1.85-.02-.52-.03-.94-.05-1.25-.02-.31-.04-.49-.08-.54l-1.6-.35.08-1.17h6.08c1.94,0,3.41.37,4.41,1.11,1,.74,1.49,1.82,1.49,3.22,0,.93-.24,1.76-.73,2.48-.49.73-1.18,1.3-2.06,1.71-.89.41-1.93.62-3.13.62-.32,0-.63-.02-.92-.05-.3-.03-.58-.08-.85-.13v-1.65c.25.1.52.18.81.24.29.06.6.09.94.09.88,0,1.56-.25,2.04-.76.48-.51.72-1.25.72-2.23,0-1.15-.29-1.99-.87-2.53-.58-.54-1.35-.81-2.32-.81h-.91c0,.12,0,.35-.01.68s-.02.77-.03,1.3-.01,1.15-.01,1.86l.03,4.43c0,.74,0,1.38.03,1.91s.04.95.06,1.24c.03.3.05.48.06.54l2.05.35-.08,1.22h-6.71Z"/>
            <path class="cls-32" d="m225.56,201.22c-1.15,0-2.16-.24-3.03-.72-.87-.48-1.55-1.15-2.04-2-.49-.85-.73-1.83-.73-2.93,0-1.2.27-2.23.82-3.1s1.27-1.54,2.18-2c.9-.46,1.87-.7,2.9-.7,1.1,0,2.06.24,2.89.71.83.47,1.47,1.13,1.94,1.98.46.84.7,1.82.7,2.91s-.25,2.09-.75,2.98c-.5.89-1.17,1.59-2.03,2.1-.85.52-1.8.77-2.85.77Zm.25-1.47c.47,0,.88-.15,1.22-.44.34-.29.6-.72.79-1.28.19-.56.28-1.21.28-1.95,0-1.45-.25-2.63-.76-3.55-.51-.91-1.18-1.37-2.03-1.37-.73,0-1.31.35-1.75,1.04-.44.69-.66,1.61-.66,2.76,0,.91.13,1.73.38,2.46.25.73.6,1.3,1.04,1.71.44.41.94.62,1.49.62Z"/>
            <path class="cls-28" d="m232.6,201.01l-.08-1.11,1.65-.38c.03-.15.06-.45.08-.89.02-.44.03-.98.05-1.61.02-.63.03-1.3.03-1.99v-3.19c0-.59,0-1.19-.01-1.81,0-.62-.02-1.2-.03-1.76,0-.56-.02-1.05-.04-1.48-.02-.43-.03-.76-.05-1l-1.87-.25-.05-.99,4.43-1.17.63.41c-.02.71-.04,1.41-.06,2.09-.03.68-.04,1.45-.05,2.29,0,.84-.01,1.88-.01,3.09l-.03,3.85c0,1.12.01,2.09.04,2.93s.05,1.33.09,1.48l1.65.38-.05,1.11h-6.31Z"/>
            <path class="cls-47" d="m239.85,201.01l-.08-1.11,1.7-.38c.02-.07.03-.21.05-.43.02-.22.03-.51.05-.87.02-.36.03-.79.03-1.28l.03-1.92c0-.52-.02-1.01-.05-1.46-.03-.45-.09-.87-.18-1.25l-1.7-.35v-1.04l4.33-1.09.58.43c-.05.52-.09,1.05-.11,1.58-.03.53-.04,1.14-.04,1.84v3.19c0,.62.01,1.19.04,1.7s.06.83.11.96l1.7.38-.08,1.11h-6.38Zm3.22-13.55c-.59,0-1.06-.18-1.42-.54-.36-.36-.53-.8-.53-1.3s.18-.92.53-1.29c.35-.37.83-.56,1.42-.56s1.06.19,1.39.56c.34.37.51.8.51,1.29s-.17.94-.51,1.3c-.34.36-.8.54-1.39.54Z"/>
            <path class="cls-35" d="m247.22,201.01l-.08-1.09,1.57-.41c.02-.07.03-.21.05-.43.02-.22.03-.51.05-.87.02-.36.03-.79.03-1.28l.03-1.92c0-.52-.02-1.01-.05-1.46-.03-.45-.09-.87-.18-1.25l-1.62-.35v-1.04l4.08-1.09.56.41-.1,2.03.08.03c.49-.95.99-1.59,1.49-1.92.51-.34,1.01-.51,1.52-.51.44,0,.81.12,1.13.35.31.24.47.6.47,1.09s-.17.87-.51,1.14-.74.41-1.22.41c-.37,0-.71-.07-1.01-.2-.3-.13-.62-.36-.96-.68l.61.08c-.27.2-.53.46-.79.77-.25.31-.48.68-.68,1.1l.03,2.1c.02.56.03,1.08.05,1.56.02.48.03.9.05,1.24.02.35.03.59.05.72l2.2.35-.08,1.14h-6.76Z"/>
            <path class="cls-14" d="m261.35,201.22c-.76,0-1.41-.16-1.96-.48-.55-.32-.97-.71-1.25-1.17-.29-.46-.43-.89-.43-1.32,0-.59.19-1.08.56-1.48.37-.4.96-.72,1.77-.97l3.95-1.22v-1.04c0-.37-.12-.72-.35-1.04-.24-.32-.55-.58-.94-.79-.39-.2-.81-.3-1.27-.3-.32,0-.54.07-.67.22s-.21.43-.24.85l-.1,1.37c-.76.17-1.39.15-1.89-.06-.5-.21-.75-.56-.75-1.05,0-.3.15-.62.46-.94.3-.32.69-.62,1.15-.91s.95-.53,1.46-.74c.51-.2.97-.33,1.39-.38,1.42,0,2.55.34,3.38,1.01s1.26,1.58,1.28,2.71l-.08,3.75c0,.42.01.77.04,1.05.03.28.07.5.14.67l1.65.3v.96l-1.5.63c-.29.12-.55.21-.79.27-.24.06-.46.09-.66.09-.61,0-1.03-.32-1.27-.96l-.38-1.11.48.1c-.52.62-1.06,1.11-1.6,1.46-.54.35-1.07.52-1.6.52Zm1.09-2.03c.29,0,.56-.06.82-.18s.5-.3.72-.56v-2.53l-2.1.46c-.41.08-.7.23-.87.43-.18.2-.27.47-.27.81,0,.41.17.77.49,1.09.33.32.73.48,1.2.48Z"/>
            <path class="cls-39" d="m269.48,201.01l-.08-1.09,1.57-.41c.02-.07.03-.21.05-.42.02-.21.03-.5.05-.86.02-.36.03-.8.03-1.3l.03-1.92c0-.54-.02-1.03-.05-1.47-.03-.44-.09-.85-.18-1.24l-1.62-.35v-1.04l4.13-1.09.61.43-.15,1.42.08.03c.54-.64,1.12-1.12,1.74-1.44.62-.32,1.27-.48,1.96-.48s1.32.17,1.89.52c.57.35,1.02.86,1.36,1.53.34.68.51,1.5.51,2.48v2.63c0,.57,0,1.11.03,1.61.02.5.05.82.1.98l1.57.41-.08,1.09h-5.95l-.08-1.09,1.47-.41c.03-.14.06-.33.08-.58.02-.25.03-.55.04-.89,0-.34.01-.68.01-1.04v-2.33c0-.66-.11-1.19-.32-1.61-.21-.41-.49-.72-.82-.91-.34-.19-.71-.29-1.11-.29-.47,0-.91.11-1.32.32-.41.21-.76.52-1.06.92v3.75c0,.64.01,1.21.04,1.71s.06.81.11.95l1.57.41-.08,1.09h-6.1Z"/>
            <path class="cls-40" d="m283.8,206.84l-.56-1.04c.84-.51,1.46-1.1,1.84-1.79.38-.68.57-1.57.57-2.65l.03-6.43c0-.64-.02-1.17-.06-1.58-.04-.41-.1-.76-.17-1.05l-1.7-.35v-1.04l4.36-1.09.58.43c-.05.47-.09.98-.11,1.52-.03.54-.04,1.23-.04,2.08l.03,6.92c0,.62-.11,1.24-.34,1.85-.23.61-.55,1.18-.97,1.71-.42.53-.92,1.01-1.51,1.44-.58.43-1.23.79-1.94,1.08Zm3.32-19.38c-.59,0-1.06-.18-1.42-.54-.36-.36-.53-.8-.53-1.3s.18-.92.53-1.29c.35-.37.83-.56,1.42-.56s1.06.19,1.39.56c.34.37.51.8.51,1.29s-.17.94-.51,1.3-.8.54-1.39.54Z"/>
            <path class="cls-26" d="m296.81,201.22c-1.05,0-1.99-.24-2.82-.71-.84-.47-1.49-1.13-1.96-1.96s-.71-1.79-.71-2.88c0-1.18.26-2.22.79-3.1.52-.89,1.21-1.58,2.05-2.08.84-.5,1.75-.74,2.71-.72,1.47.02,2.59.48,3.36,1.39s1.15,2.1,1.15,3.57v.56h-7.5v-1.27h5.29l-.35.53v-.76c0-.84-.19-1.51-.57-2-.38-.49-.91-.73-1.58-.73-.44,0-.84.13-1.22.38-.37.25-.67.63-.89,1.14-.22.51-.33,1.14-.33,1.9v.46c0,1.25.32,2.25.97,2.99.65.74,1.52,1.12,2.6,1.12.57,0,1.09-.11,1.56-.32s.92-.58,1.38-1.1l.73.66c-.47.98-1.12,1.71-1.94,2.2-.82.49-1.73.74-2.72.74Z"/>
            <path class="cls-20" d="m339.47,201.14c-.25-.02-.57-.03-.94-.05-.37-.02-.75-.03-1.14-.05-.39-.02-.73-.03-1.01-.03h-6.05c-.34,0-.66,0-.98.01-.31,0-.63.03-.95.06v-1.19l8.13-13.35v.99h-4.79c-.46,0-.83.01-1.11.04-.29.02-.56.05-.81.09l-.43,2.58h-1.39l-.05-4.15c.39.02.8.03,1.23.04.43,0,.81.01,1.13.01h7.14c.32,0,.65,0,.98-.01.33,0,.65-.02.98-.04v1.17l-8,13.25v-.99h5.24c.2,0,.39,0,.56-.03s.35-.04.56-.08l1.06-2.84,1.37.15-.71,4.41Z"/>
            <path class="cls-37" d="m345.4,201.22c-.76,0-1.41-.16-1.96-.48-.55-.32-.97-.71-1.25-1.17-.29-.46-.43-.89-.43-1.32,0-.59.19-1.08.56-1.48.37-.4.96-.72,1.77-.97l3.95-1.22v-1.04c0-.37-.12-.72-.35-1.04-.24-.32-.55-.58-.94-.79-.39-.2-.81-.3-1.27-.3-.32,0-.54.07-.67.22s-.21.43-.24.85l-.1,1.37c-.76.17-1.39.15-1.89-.06-.5-.21-.75-.56-.75-1.05,0-.3.15-.62.46-.94.3-.32.69-.62,1.15-.91s.95-.53,1.46-.74c.51-.2.97-.33,1.39-.38,1.42,0,2.55.34,3.38,1.01s1.26,1.58,1.28,2.71l-.08,3.75c0,.42.01.77.04,1.05.03.28.07.5.14.67l1.65.3v.96l-1.5.63c-.29.12-.55.21-.79.27-.24.06-.46.09-.66.09-.61,0-1.03-.32-1.27-.96l-.38-1.11.48.1c-.52.62-1.06,1.11-1.6,1.46-.54.35-1.07.52-1.6.52Zm1.09-2.03c.29,0,.56-.06.82-.18s.5-.3.72-.56v-2.53l-2.1.46c-.41.08-.7.23-.87.43-.18.2-.27.47-.27.81,0,.41.17.77.49,1.09.33.32.73.48,1.2.48Z"/>
            <path class="cls-30" d="m357.89,201.22c-.68,0-1.35-.08-2.03-.23-.68-.15-1.24-.35-1.7-.61l-.13-2.89h1.5l.53,1.82c.61.39,1.27.58,2,.58.54,0,.96-.12,1.27-.35.3-.24.46-.55.46-.94s-.15-.75-.46-1.04c-.3-.29-.92-.61-1.85-.96-1.23-.47-2.09-.97-2.58-1.5-.49-.52-.73-1.18-.73-1.98,0-.66.2-1.24.61-1.75.41-.51.97-.9,1.68-1.19.72-.29,1.55-.43,2.5-.43.52,0,1.05.05,1.58.14.53.09.97.22,1.33.39l.28,2.84h-1.47l-.58-1.77c-.17-.1-.37-.18-.61-.24-.24-.06-.47-.09-.71-.09-.54,0-.98.12-1.3.37-.33.25-.49.56-.49.95,0,.42.19.78.57,1.06.38.29,1.06.64,2.04,1.06,1.11.47,1.9.96,2.37,1.47s.7,1.13.7,1.88c0,1.01-.44,1.83-1.33,2.46s-2.03.94-3.43.94Zm4.21-16.9l-2.66,4.15h-2.38l-2.66-4.15,1.29-.46,3.39,3.65h-1.62l3.34-3.65,1.29.46Z"/>
            <path class="cls-19" d="m372.55,199.06c-.27.68-.72,1.21-1.36,1.6-.63.39-1.32.58-2.06.58-1.13,0-2.06-.33-2.77-.99-.72-.66-1.08-1.66-1.08-2.99l.08-5.78h-1.77v-.73l3.93-3.24h.73l-.05,3.34-.05,6.08c0,.76.18,1.31.53,1.66s.85.52,1.49.52c.34,0,.66-.07.98-.2.31-.13.59-.31.82-.53l.58.68Zm-5.67-7.57v-1.49h4.96v1.49h-4.96Z"/>
            <path class="cls-16" d="m372.88,201.01l-.08-1.11,1.7-.38c.02-.07.03-.21.05-.43.02-.22.03-.51.05-.87.02-.36.03-.79.03-1.28l.03-1.92c0-.52-.02-1.01-.05-1.46-.03-.45-.09-.87-.18-1.25l-1.7-.35v-1.04l4.33-1.09.58.43c-.05.52-.09,1.05-.11,1.58-.03.53-.04,1.14-.04,1.84v3.19c0,.62.01,1.19.04,1.7s.06.83.11.96l1.7.38-.08,1.11h-6.38Zm3.22-13.55c-.59,0-1.06-.18-1.42-.54-.36-.36-.53-.8-.53-1.3s.18-.92.53-1.29c.35-.37.83-.56,1.42-.56s1.06.19,1.39.56c.34.37.51.8.51,1.29s-.17.94-.51,1.3c-.34.36-.8.54-1.39.54Z"/>
            <path class="cls-24" d="m388.89,199.06c-.27.68-.72,1.21-1.36,1.6-.63.39-1.32.58-2.06.58-1.13,0-2.06-.33-2.77-.99-.72-.66-1.08-1.66-1.08-2.99l.08-5.78h-1.77v-.73l3.93-3.24h.73l-.05,3.34-.05,6.08c0,.76.18,1.31.53,1.66s.85.52,1.49.52c.34,0,.66-.07.98-.2.31-.13.59-.31.82-.53l.58.68Zm-5.67-7.57v-1.49h4.96v1.49h-4.96Z"/>
            <path class="cls-38" d="m393.53,201.22c-.76,0-1.41-.16-1.96-.48-.55-.32-.97-.71-1.25-1.17-.29-.46-.43-.89-.43-1.32,0-.59.19-1.08.56-1.48.37-.4.96-.72,1.77-.97l3.95-1.22v-1.04c0-.37-.12-.72-.35-1.04-.24-.32-.55-.58-.94-.79-.39-.2-.81-.3-1.27-.3-.32,0-.54.07-.67.22s-.21.43-.24.85l-.1,1.37c-.76.17-1.39.15-1.89-.06-.5-.21-.75-.56-.75-1.05,0-.3.15-.62.46-.94.3-.32.69-.62,1.15-.91s.95-.53,1.46-.74c.51-.2.97-.33,1.39-.38,1.42,0,2.55.34,3.38,1.01s1.26,1.58,1.28,2.71l-.08,3.75c0,.42.01.77.04,1.05.03.28.07.5.14.67l1.65.3v.96l-1.5.63c-.29.12-.55.21-.79.27-.24.06-.46.09-.66.09-.61,0-1.03-.32-1.27-.96l-.38-1.11.48.1c-.52.62-1.06,1.11-1.6,1.46-.54.35-1.07.52-1.6.52Zm1.09-2.03c.29,0,.56-.06.82-.18s.5-.3.72-.56v-2.53l-2.1.46c-.41.08-.7.23-.87.43-.18.2-.27.47-.27.81,0,.41.17.77.49,1.09.33.32.73.48,1.2.48Z"/>
          </g>
          <g>
            <path class="cls-6" d="m187.79,188.59l-3.36,3.36,8.44,8.44,8.36-8.36-3.45-3.45h-9.99Zm.15,3.36l1.97-3.36h5.93s1.97,3.36,1.97,3.36l-4.93,8.41-4.93-8.41Z"/>
            <line class="cls-8" x1="192.89" y1="200.36" x2="192.86" y2="188.36"/>
            <line class="cls-7" x1="184.83" y1="191.59" x2="200.83" y2="191.59"/>
          </g>
          <g>
            <path class="cls-9" d="m309.61,188.59l-3.36,3.36,8.44,8.44,8.36-8.36-3.45-3.45h-9.99Zm.15,3.36l1.97-3.36h5.93s1.97,3.36,1.97,3.36l-4.93,8.41-4.93-8.41Z"/>
            <line class="cls-8" x1="314.71" y1="200.36" x2="314.68" y2="188.36"/>
            <line class="cls-2" x1="306.83" y1="191.59" x2="322.83" y2="191.59"/>
          </g>
        </g>
      </g>
    </g>
  </g>
</svg>